<svg width="358" height="377" viewBox="0 0 358 377" fill="none" xmlns="http://www.w3.org/2000/svg">
<rect y="24" width="358" height="353" rx="40" fill="#9A8DD6"/>
<circle cx="78" cy="71" r="26" fill="#EAFBFF"/>
<circle cx="286" cy="71" r="26" fill="#EAFBFF"/>
<circle cx="179" cy="71" r="26" fill="#EAFBFF"/>
<rect x="72" width="13" height="71" rx="4" fill="#CCC591"/>
<rect x="173" width="13" height="71" rx="4" fill="#CCC591"/>
<rect x="280" width="13" height="71" rx="4" fill="#CCC591"/>
<mask id="path-8-inside-1_327_805" fill="white">
<rect x="42" y="113" width="275" height="164" rx="3"/>
</mask>
<rect x="42" y="113" width="275" height="164" rx="3" fill="#2DCC69" stroke="#CCC591" stroke-width="26" mask="url(#path-8-inside-1_327_805)"/>
<path d="M71.5651 310.28C70.6892 310.917 70.2512 311.634 70.2512 312.43C70.2512 313.2 70.8351 313.584 72.003 313.584C72.5073 313.584 73.1576 313.438 73.9539 313.146H73.9937C74.1264 313.146 74.1928 313.425 74.1928 313.983C74.1928 314.513 74.1397 314.832 74.0335 314.938C71.2996 316.876 68.9904 317.845 67.1059 317.845C65.2214 317.845 63.8545 317.314 63.0051 316.252C62.1557 315.19 61.7311 313.81 61.7311 312.111C61.7311 310.386 62.6733 308.568 64.5578 306.657C66.4424 304.719 68.9772 302.941 72.1623 301.322C75.3474 299.676 79.2889 298.323 83.9869 297.261C88.7115 296.199 94.0067 295.668 99.8726 295.668C105.765 295.668 110.689 296.823 114.643 299.132C118.598 301.415 120.576 304.029 120.576 306.975C120.576 309.895 119.541 312.868 117.47 315.894C115.426 318.919 112.852 321.56 109.746 323.817C106.667 326.046 103.243 327.878 99.4745 329.311C95.7054 330.744 92.3345 331.461 89.3618 331.461C86.389 331.461 84.0798 330.266 82.4342 327.878C78.3997 334.221 75.6659 338.561 74.2326 340.897C72.7993 343.206 71.5783 345.157 70.5697 346.749C69.5876 348.315 68.8179 349.549 68.2605 350.452C67.7297 351.354 67.451 351.819 67.4244 351.845C66.867 352.456 66.2698 352.761 65.6328 352.761L63.6819 353.119L62.7264 353.04H62.0496C60.4836 353.04 59.7006 352.549 59.7006 351.567C59.7006 350.319 62.315 345.621 67.5439 337.473C72.7727 329.324 77.6964 321.932 82.3148 315.296C86.9597 308.661 89.667 304.932 90.4367 304.109C91.2065 303.286 91.8833 302.808 92.4672 302.675C93.0777 302.516 94.0465 302.437 95.3736 302.437H97.3643C97.7094 302.437 97.8819 302.715 97.8819 303.273C97.8819 303.804 97.8156 304.175 97.6828 304.387C95.3471 307.652 91.1269 314.102 85.0221 323.737C85.2344 324.162 85.5795 324.427 86.0572 324.533C86.5615 324.639 87.0924 324.692 87.6498 324.692H88.8044C91.2463 324.692 93.8873 324.109 96.7273 322.941C99.5674 321.746 102.062 320.326 104.212 318.681C106.362 317.035 108.154 315.323 109.587 313.545C111.047 311.74 111.777 310.2 111.777 308.926C111.777 307.652 111.379 306.511 110.582 305.502C109.786 304.494 108.698 303.697 107.318 303.113C104.61 301.972 101.319 301.401 97.444 301.401C93.5953 301.401 88.9371 302.41 83.4694 304.427C78.0281 306.418 74.06 308.369 71.5651 310.28ZM121.332 331.302C127.596 324.188 132.931 320.631 137.337 320.631C138.426 320.631 139.315 320.963 140.005 321.627C140.721 322.264 141.08 323.1 141.08 324.135C141.08 325.17 140.337 326.909 138.85 329.351C137.39 331.766 136.037 333.81 134.789 335.482C134.126 336.331 133.369 336.756 132.52 336.756C131.697 336.756 131.047 336.451 130.569 335.84C130.118 335.23 129.892 334.513 129.892 333.69C129.892 331.859 130.874 329.789 132.838 327.479L132.759 327.4C131.883 327.479 129.706 329.205 126.229 332.576C122.779 335.946 119.833 338.972 117.391 341.653C114.975 344.307 112.348 347.546 109.508 351.368C108.685 352.509 107.981 353.08 107.397 353.08C106.84 353.08 106.097 352.907 105.168 352.562C104.212 352.19 103.642 351.925 103.456 351.766C103.243 351.607 103.137 351.341 103.137 350.97C103.137 350.598 103.243 350.173 103.456 349.695C103.668 349.191 104.066 348.488 104.65 347.585C105.208 346.683 106.057 345.223 107.198 343.206C108.366 341.189 110.171 338.136 112.613 334.049C115.055 329.961 116.515 327.493 116.992 326.643C118.001 324.892 118.824 323.617 119.461 322.821C120.655 321.308 122.673 320.552 125.513 320.552C126.15 320.552 126.468 320.95 126.468 321.746C126.468 322.994 125.314 325.343 123.004 328.793L121.332 331.302ZM163.853 322.662C164.649 322.662 165.459 323.02 166.282 323.737C167.131 324.454 167.556 325.555 167.556 327.041C167.556 328.501 167.038 330.412 166.003 332.775C164.968 335.11 163.548 337.499 161.743 339.941C159.938 342.356 157.948 344.639 155.771 346.789C153.621 348.912 151.285 350.664 148.764 352.044C146.269 353.398 143.999 354.075 141.956 354.075C139.912 354.075 138.266 353.438 137.019 352.164C135.798 350.863 135.187 349.072 135.187 346.789C135.187 344.48 135.745 341.932 136.86 339.145C138.001 336.358 139.461 333.903 141.239 331.779C143.017 329.629 144.942 327.705 147.012 326.006C151.338 322.529 155.134 320.791 158.399 320.791C159.859 320.791 160.96 321.149 161.703 321.866C161.969 322.105 162.101 322.317 162.101 322.503V322.742C162.473 322.689 163.057 322.662 163.853 322.662ZM159.832 327.957H159.553C158.624 327.957 158.16 327.28 158.16 325.927C156.222 326.564 154.192 327.678 152.068 329.271C149.945 330.864 148.047 332.748 146.375 334.925C142.978 339.278 141.252 342.954 141.199 345.953C141.199 347.439 141.743 348.183 142.832 348.183C143.92 348.183 145.539 347.466 147.689 346.033C149.839 344.599 151.962 342.556 154.059 339.901C156.182 337.247 157.762 334.951 158.797 333.014C159.859 331.049 160.389 329.722 160.389 329.032C160.389 328.316 160.204 327.957 159.832 327.957ZM173.767 314.978C173.767 315.695 173.369 316.053 172.572 316.053C171.803 316.053 171.126 315.96 170.542 315.774C169.985 315.562 169.493 315.243 169.069 314.819C168.671 314.394 168.312 313.969 167.994 313.545C167.702 313.12 167.423 312.563 167.158 311.872C166.892 311.156 166.68 310.572 166.521 310.121C166.361 309.643 166.162 309.006 165.924 308.21C165.711 307.387 165.552 306.79 165.446 306.418C163.747 308.117 161.425 310.054 158.478 312.231C155.532 314.381 153.422 315.456 152.148 315.456C151.564 315.456 151.272 315.164 151.272 314.58C151.272 313.996 151.392 313.452 151.63 312.947C151.896 312.417 152.334 311.846 152.944 311.235C153.581 310.598 154.112 310.081 154.537 309.683C154.988 309.285 155.705 308.687 156.687 307.891C160.217 305.051 162.818 302.662 164.49 300.725C164.782 300.167 165.499 299.889 166.64 299.889C167.781 299.889 168.71 300.273 169.427 301.043C170.144 301.786 170.608 302.596 170.821 303.472C171.033 304.321 171.219 305.277 171.378 306.338C171.537 307.373 171.643 307.971 171.697 308.13C171.776 308.289 171.935 308.687 172.174 309.324C172.413 309.935 172.599 310.413 172.732 310.758C172.864 311.103 173.024 311.567 173.209 312.151C173.581 313.292 173.767 314.235 173.767 314.978ZM227.276 329.789C227.913 329.789 228.232 330.306 228.232 331.341C228.232 332.35 228.006 334.102 227.555 336.597C227.21 338.269 225.299 340.658 221.822 343.763C217.628 347.479 213.023 350.133 208.007 351.726C204.981 352.681 202.021 353.159 199.128 353.159C196.262 353.159 193.634 351.952 191.245 349.536C188.883 347.094 187.702 344.214 187.702 340.897C187.702 337.552 188.365 334.102 189.692 330.545C191.046 326.962 192.851 323.551 195.107 320.313C197.39 317.048 200.07 313.916 203.149 310.917C206.255 307.918 209.48 305.316 212.824 303.113C216.168 300.91 219.672 299.159 223.335 297.858C226.998 296.557 230.475 295.907 233.766 295.907C236.367 295.907 238.584 296.849 240.415 298.734C241.37 299.743 241.848 301.017 241.848 302.556C241.848 304.069 241.105 305.993 239.619 308.329C238.132 310.638 236.367 312.748 234.323 314.659C232.306 316.57 230.209 318.19 228.033 319.517C225.883 320.844 224.158 321.507 222.857 321.507C221.557 321.507 220.442 321.109 219.513 320.313C218.584 319.49 218.119 318.76 218.119 318.123C218.119 317.486 218.252 316.783 218.517 316.013C218.809 315.243 219.168 314.858 219.592 314.858C219.486 314.991 219.433 315.124 219.433 315.257C219.433 315.575 219.884 315.734 220.787 315.734C221.716 315.734 223.255 314.925 225.405 313.306C227.555 311.687 229.493 309.868 231.218 307.851C232.97 305.834 233.846 304.321 233.846 303.313C233.846 302.622 233.381 302.277 232.452 302.277C229.957 302.277 226.507 303.445 222.101 305.781C217.721 308.09 213.527 311.076 209.52 314.739C205.512 318.402 202.021 322.755 199.049 327.798C196.102 332.814 194.629 337.327 194.629 341.335C194.629 343.007 195.067 344.347 195.943 345.356C196.846 346.364 198.212 346.869 200.044 346.869C201.902 346.869 204.092 346.338 206.613 345.276C209.135 344.214 211.523 342.914 213.78 341.374C216.062 339.835 218.212 338.256 220.229 336.637C222.247 335.017 223.852 333.597 225.047 332.377C226.268 331.156 226.892 330.426 226.918 330.187C226.945 329.921 227.064 329.789 227.276 329.789ZM243.003 331.302C249.267 324.188 254.602 320.631 259.008 320.631C260.096 320.631 260.985 320.963 261.675 321.627C262.392 322.264 262.75 323.1 262.75 324.135C262.75 325.17 262.007 326.909 260.521 329.351C259.061 331.766 257.707 333.81 256.46 335.482C255.796 336.331 255.04 336.756 254.19 336.756C253.368 336.756 252.717 336.451 252.24 335.84C251.788 335.23 251.563 334.513 251.563 333.69C251.563 331.859 252.545 329.789 254.509 327.479L254.429 327.4C253.553 327.479 251.377 329.205 247.9 332.576C244.449 335.946 241.503 338.972 239.061 341.653C236.646 344.307 234.018 347.546 231.178 351.368C230.355 352.509 229.652 353.08 229.068 353.08C228.511 353.08 227.767 352.907 226.838 352.562C225.883 352.19 225.312 351.925 225.126 351.766C224.914 351.607 224.808 351.341 224.808 350.97C224.808 350.598 224.914 350.173 225.126 349.695C225.339 349.191 225.737 348.488 226.321 347.585C226.878 346.683 227.728 345.223 228.869 343.206C230.037 341.189 231.842 338.136 234.284 334.049C236.726 329.961 238.185 327.493 238.663 326.643C239.672 324.892 240.495 323.617 241.132 322.821C242.326 321.308 244.343 320.552 247.183 320.552C247.82 320.552 248.139 320.95 248.139 321.746C248.139 322.994 246.984 325.343 244.675 328.793L243.003 331.302ZM284.409 309.285C284.409 310.797 283.706 312.324 282.299 313.863C280.892 315.376 279.419 316.133 277.88 316.133C276.367 316.133 275.61 315.336 275.61 313.744C275.61 312.151 276.274 310.638 277.601 309.205C278.955 307.745 280.441 307.015 282.06 307.015C282.777 307.015 283.347 307.214 283.772 307.612C284.197 308.011 284.409 308.568 284.409 309.285ZM277.959 344.042C277.959 344.838 277.88 345.409 277.72 345.754C276.42 348.408 274.35 350.558 271.509 352.204C268.669 353.823 266.201 354.632 264.104 354.632C262.007 354.632 260.202 353.929 258.689 352.522C257.177 351.115 256.42 349.682 256.42 348.222C256.42 346.763 257.15 344.639 258.61 341.852C260.07 339.065 261.529 336.491 262.989 334.128C264.449 331.766 265.179 330.492 265.179 330.306C265.179 330.094 264.9 329.696 264.343 329.112C263.812 328.528 263.547 328.103 263.547 327.838C263.547 327.546 264.091 326.816 265.179 325.648C266.294 324.454 267.634 323.286 269.2 322.144C270.793 320.977 272 320.393 272.823 320.393C273.673 320.393 274.429 320.764 275.093 321.507C275.756 322.251 276.088 322.927 276.088 323.538C276.088 324.148 272.929 329.895 266.612 340.777C266.533 340.936 266.307 341.295 265.936 341.852C265.59 342.383 265.312 342.834 265.099 343.206C264.914 343.551 264.688 343.976 264.423 344.48C263.892 345.542 263.626 346.431 263.626 347.147C263.626 348.05 264.237 348.501 265.458 348.501C266.679 348.501 267.939 348.09 269.24 347.267C270.567 346.417 271.709 345.488 272.664 344.48C275.159 341.799 276.579 340.459 276.924 340.459C277.614 340.459 277.959 341.653 277.959 344.042ZM279.432 345.037L279.393 345.674C279.393 346.338 279.645 346.909 280.149 347.386C280.653 347.864 281.118 348.103 281.543 348.103C284.728 348.103 287.541 347.625 289.983 346.67C292.451 345.714 293.686 344.759 293.686 343.803C293.686 343.352 293.234 342.967 292.332 342.648C291.456 342.303 289.956 341.892 287.833 341.414C285.736 340.91 284.21 340.525 283.254 340.26C282.299 339.968 281.543 339.702 280.985 339.463C280.428 339.224 279.857 338.893 279.273 338.468C278.026 337.592 277.402 336.292 277.402 334.566C277.402 332.814 278.039 331.089 279.313 329.39C280.614 327.665 282.233 326.192 284.17 324.971C286.108 323.75 288.191 322.675 290.421 321.746C294.827 319.915 298.53 318.999 301.529 318.999C304.475 318.999 306.293 319.636 306.983 320.91C307.196 321.361 307.302 321.866 307.302 322.423V322.702C307.302 324.109 306.997 325.21 306.386 326.006C305.802 326.803 304.86 327.519 303.559 328.156C302.285 328.793 301.264 329.112 300.494 329.112C299.751 329.112 299.273 329.059 299.061 328.953C298.875 328.846 298.715 328.714 298.583 328.554C298.45 328.369 298.278 328.236 298.065 328.156C297.879 328.077 297.786 327.878 297.786 327.559C297.786 327.241 297.919 326.922 298.185 326.604C298.45 326.258 298.636 325.9 298.742 325.529C296.99 325.608 295.159 326.02 293.248 326.763C291.337 327.479 289.691 328.289 288.311 329.191C286.957 330.094 285.829 330.956 284.927 331.779C284.024 332.602 283.573 333.213 283.573 333.611C283.573 333.982 284.183 334.288 285.404 334.526C290.899 335.615 294.509 336.557 296.234 337.353C297.959 338.149 299.153 339.052 299.817 340.061C300.481 341.069 300.812 341.985 300.812 342.808C300.812 344.506 300.136 346.112 298.782 347.625C297.428 349.138 295.756 350.372 293.765 351.328C289.492 353.425 285.763 354.473 282.578 354.473C279.419 354.473 277.229 353.982 276.008 353C274.814 352.044 274.217 350.903 274.217 349.576C274.217 348.249 274.549 347.028 275.212 345.913C275.902 344.772 276.778 344.201 277.84 344.201C278.902 344.201 279.432 344.48 279.432 345.037Z" fill="#EAFBFF"/>
</svg>
